<mxfile host="Electron" modified="2023-11-28T20:50:47.781Z" agent="Mozilla/5.0 (Windows NT 10.0; Win64; x64) AppleWebKit/537.36 (KHTML, like Gecko) draw.io/22.1.2 Chrome/114.0.5735.289 Electron/25.9.4 Safari/537.36" etag="Kyu9o24aU-mxr6JzRfQ5" version="22.1.2" type="device">
  <diagram name="Страница — 1" id="vRoZ_pyPTkjO2pzTDtCH">
    <mxGraphModel dx="992" dy="484" grid="1" gridSize="10" guides="1" tooltips="1" connect="1" arrows="1" fold="1" page="1" pageScale="1" pageWidth="827" pageHeight="1169" math="0" shadow="0">
      <root>
        <mxCell id="0" />
        <mxCell id="1" parent="0" />
        <mxCell id="EjLbFh8EKCMlGqEFUeBg-3" value="" style="edgeStyle=orthogonalEdgeStyle;rounded=0;orthogonalLoop=1;jettySize=auto;html=1;" edge="1" parent="1" source="EjLbFh8EKCMlGqEFUeBg-1">
          <mxGeometry relative="1" as="geometry">
            <mxPoint x="390" y="300" as="targetPoint" />
          </mxGeometry>
        </mxCell>
        <mxCell id="EjLbFh8EKCMlGqEFUeBg-1" value="Початок" style="rounded=0;whiteSpace=wrap;html=1;" vertex="1" parent="1">
          <mxGeometry x="330" y="190" width="120" height="60" as="geometry" />
        </mxCell>
        <mxCell id="EjLbFh8EKCMlGqEFUeBg-6" value="" style="edgeStyle=orthogonalEdgeStyle;rounded=0;orthogonalLoop=1;jettySize=auto;html=1;" edge="1" parent="1" source="EjLbFh8EKCMlGqEFUeBg-4" target="EjLbFh8EKCMlGqEFUeBg-5">
          <mxGeometry relative="1" as="geometry" />
        </mxCell>
        <mxCell id="EjLbFh8EKCMlGqEFUeBg-4" value="rand() % 10) + 1" style="rounded=0;whiteSpace=wrap;html=1;" vertex="1" parent="1">
          <mxGeometry x="330" y="300" width="120" height="60" as="geometry" />
        </mxCell>
        <mxCell id="EjLbFh8EKCMlGqEFUeBg-8" value="" style="edgeStyle=orthogonalEdgeStyle;rounded=0;orthogonalLoop=1;jettySize=auto;html=1;" edge="1" parent="1" source="EjLbFh8EKCMlGqEFUeBg-5" target="EjLbFh8EKCMlGqEFUeBg-7">
          <mxGeometry relative="1" as="geometry" />
        </mxCell>
        <mxCell id="EjLbFh8EKCMlGqEFUeBg-5" value="return value" style="whiteSpace=wrap;html=1;rounded=0;" vertex="1" parent="1">
          <mxGeometry x="330" y="440" width="120" height="60" as="geometry" />
        </mxCell>
        <mxCell id="EjLbFh8EKCMlGqEFUeBg-7" value="Кінець" style="ellipse;whiteSpace=wrap;html=1;" vertex="1" parent="1">
          <mxGeometry x="330" y="544" width="120" height="80" as="geometry" />
        </mxCell>
        <mxCell id="EjLbFh8EKCMlGqEFUeBg-9" value="" style="strokeWidth=2;html=1;shape=mxgraph.flowchart.annotation_2;align=left;labelPosition=right;pointerEvents=1;" vertex="1" parent="1">
          <mxGeometry x="500" y="280" width="50" height="100" as="geometry" />
        </mxCell>
        <mxCell id="EjLbFh8EKCMlGqEFUeBg-12" value="Генерація випадкового числа від 1 до&amp;nbsp; 10" style="text;html=1;align=center;verticalAlign=middle;resizable=0;points=[];autosize=1;strokeColor=none;fillColor=none;" vertex="1" parent="1">
          <mxGeometry x="540" y="315" width="250" height="30" as="geometry" />
        </mxCell>
        <mxCell id="EjLbFh8EKCMlGqEFUeBg-13" value="" style="endArrow=none;dashed=1;html=1;dashPattern=1 3;strokeWidth=2;rounded=0;exitX=1;exitY=0.5;exitDx=0;exitDy=0;entryX=0;entryY=0.5;entryDx=0;entryDy=0;entryPerimeter=0;" edge="1" parent="1" source="EjLbFh8EKCMlGqEFUeBg-4" target="EjLbFh8EKCMlGqEFUeBg-9">
          <mxGeometry width="50" height="50" relative="1" as="geometry">
            <mxPoint x="470" y="355" as="sourcePoint" />
            <mxPoint x="520" y="305" as="targetPoint" />
          </mxGeometry>
        </mxCell>
        <mxCell id="EjLbFh8EKCMlGqEFUeBg-15" value="" style="strokeWidth=2;html=1;shape=mxgraph.flowchart.annotation_2;align=left;labelPosition=right;pointerEvents=1;" vertex="1" parent="1">
          <mxGeometry x="500" y="420" width="50" height="100" as="geometry" />
        </mxCell>
        <mxCell id="EjLbFh8EKCMlGqEFUeBg-16" value="" style="endArrow=none;dashed=1;html=1;dashPattern=1 3;strokeWidth=2;rounded=0;exitX=1;exitY=0.5;exitDx=0;exitDy=0;entryX=0;entryY=0.5;entryDx=0;entryDy=0;entryPerimeter=0;" edge="1" parent="1">
          <mxGeometry width="50" height="50" relative="1" as="geometry">
            <mxPoint x="450" y="469.62" as="sourcePoint" />
            <mxPoint x="500" y="469.62" as="targetPoint" />
          </mxGeometry>
        </mxCell>
        <mxCell id="EjLbFh8EKCMlGqEFUeBg-17" value="Функція повертає випадкове значення&amp;nbsp;" style="text;html=1;align=center;verticalAlign=middle;resizable=0;points=[];autosize=1;strokeColor=none;fillColor=none;" vertex="1" parent="1">
          <mxGeometry x="530" y="455" width="240" height="30" as="geometry" />
        </mxCell>
      </root>
    </mxGraphModel>
  </diagram>
</mxfile>
